HIERARCHY
ROOT Hips
{
 OFFSET 0.000000 0.000000 0.000000
 CHANNELS 6 Xposition Yposition Zposition Yrotation Xrotation Zrotation
 JOINT Chest
 {
  OFFSET 0.000000 9.585900 0.002600
  CHANNELS 3 Yrotation Xrotation Zrotation
  JOINT Chest2
  {
   OFFSET 0.000000 9.601200 -0.005300
   CHANNELS 3 Yrotation Xrotation Zrotation
   JOINT Chest3
   {
    OFFSET 0.000000 9.561800 0.000000
    CHANNELS 3 Yrotation Xrotation Zrotation
    JOINT Chest4
    {
     OFFSET 0.000000 9.552100 0.000000
     CHANNELS 3 Yrotation Xrotation Zrotation
     JOINT Neck
     {
      OFFSET 0.000000 14.453000 0.000000
      CHANNELS 3 Yrotation Xrotation Zrotation
      JOINT Head
      {
       OFFSET 0.000000 8.936500 -0.011300
       CHANNELS 3 Yrotation Xrotation Zrotation
       End Site
       {
        OFFSET 0.000000 17.073600 -0.006000
       }
      }
     }
     JOINT RightCollar
     {
      OFFSET -2.921100 9.558500 0.000000
      CHANNELS 3 Yrotation Xrotation Zrotation
      JOINT RightShoulder
      {
       OFFSET -13.519700 0.000000 0.000000
       CHANNELS 3 Yrotation Xrotation Zrotation
       JOINT RightElbow
       {
        OFFSET 0.000000 -29.696600 0.000000
        CHANNELS 3 Yrotation Xrotation Zrotation
        JOINT RightWrist
        {
         OFFSET 0.000000 -24.004700 0.000000
         CHANNELS 3 Yrotation Xrotation Zrotation
         End Site
         {
          OFFSET 0.000000 -17.728500 0.000000
         }
        }
       }
      }
     }
     JOINT LeftCollar
     {
      OFFSET 2.921100 9.558500 0.000000
      CHANNELS 3 Yrotation Xrotation Zrotation
      JOINT LeftShoulder
      {
       OFFSET 13.519700 0.000000 0.000000
       CHANNELS 3 Yrotation Xrotation Zrotation
       JOINT LeftElbow
       {
        OFFSET 0.000000 -29.696600 0.000000
        CHANNELS 3 Yrotation Xrotation Zrotation
        JOINT LeftWrist
        {
         OFFSET 0.000000 -24.004700 0.000000
         CHANNELS 3 Yrotation Xrotation Zrotation
         End Site
         {
          OFFSET 0.000000 -17.728500 0.000000
         }
        }
       }
      }
     }
    }
   }
  }
 }
 JOINT RightHip
 {
  OFFSET -7.771700 -0.012900 -0.001300
  CHANNELS 3 Yrotation Xrotation Zrotation
  JOINT RightKnee
  {
   OFFSET 0.000000 -40.869800 0.001200
   CHANNELS 3 Yrotation Xrotation Zrotation
   JOINT RightAnkle
   {
    OFFSET 0.000000 -39.717900 0.002100
    CHANNELS 3 Yrotation Xrotation Zrotation
    JOINT RightToe
    {
     OFFSET 0.000000 -4.965400 11.033500
     CHANNELS 3 Yrotation Xrotation Zrotation
     End Site
     {
      OFFSET 0.000000 -1.423100 5.872300
     }
    }
   }
  }
 }
 JOINT LeftHip
 {
  OFFSET 7.771700 -0.012900 -0.001300
  CHANNELS 3 Yrotation Xrotation Zrotation
  JOINT LeftKnee
  {
   OFFSET 0.000000 -40.869800 0.001200
   CHANNELS 3 Yrotation Xrotation Zrotation
   JOINT LeftAnkle
   {
    OFFSET 0.000000 -39.717900 0.002100
    CHANNELS 3 Yrotation Xrotation Zrotation
    JOINT LeftToe
    {
     OFFSET 0.000000 -4.965400 11.033500
     CHANNELS 3 Yrotation Xrotation Zrotation
     End Site
     {
      OFFSET 0.000000 -1.423100 5.872300
     }
    }
   }
  }
 }
}
MOTION
Frames: 16
Frame Time: 0.008333
0.000000 85.388000 0.000000 0.000000 -5.767877 0.000000 0.000000 11.653817 0.000000 0.000000 -5.885947 0.000000 0.000000 -0.000000 0.000000 0.000000 -0.000000 0.000000 0.000000 12.528835 0.000000 0.000000 0.711642 0.000000 0.000000 -0.000000 0.000000 0.000000 0.000000 -90.000000 0.000000 -2.309062 0.000000 0.000000 2.309062 0.000000 0.000000 -0.000000 0.000000 0.000000 -0.000000 90.000000 0.000000 -2.309062 0.000000 0.000000 2.309062 0.000000 0.000000 8.520406 0.000000 0.000000 1.905762 0.000000 -0.000000 -4.658285 0.000000 0.000000 -0.000000 0.000000 0.000000 8.520406 0.000000 0.000000 1.905762 0.000000 -0.000000 -4.658285 0.000000 0.000000 -0.000000 0.000000
-261.539367 60.221788 -81.016744 158.238136 -25.781464 3.338105 3.551282 18.126969 1.052841 0.362227 2.055906 0.086424 0.624531 3.433461 0.142853 2.964476 15.730973 1.028113 1.561747 16.936458 -0.121679 1.649367 -7.926901 -0.475365 1.136529 1.497293 -5.866633 -7.973437 -17.961025 -3.859962 -103.722111 -77.328230 110.655110 -4.231541 -4.847060 -25.403640 -6.153234 -1.512614 -5.044532 27.129729 -12.187238 -4.207427 94.271908 -79.060777 -97.244161 -7.272833 0.762423 -8.851514 -1.884329 -44.003021 4.479458 -24.678557 69.400175 -21.634259 -0.494442 -4.172820 -4.384454 0.853964 -0.258177 0.273478 13.060399 -42.981915 -2.042133 24.455865 61.337131 24.015314 -16.000535 -8.716132 4.570995 -0.657924 0.307964 -0.256086
-261.534773 60.222110 -81.043781 158.234673 -25.766117 3.346101 3.547615 18.114426 1.044362 0.353345 2.044540 0.088370 0.625051 3.408470 0.145483 2.970972 15.685537 1.041870 1.594059 16.967357 -0.131411 1.702246 -7.895920 -0.499136 1.156294 1.528206 -5.870381 -7.945643 -18.042707 -3.914114 -104.345209 -77.463873 111.299708 -4.168374 -4.818589 -25.365921 -6.146986 -1.603243 -5.063011 27.122753 -12.212779 -4.124900 94.656745 -79.023494 -97.739104 -7.247579 0.742609 -8.762853 -1.962113 -44.003666 4.464454 -24.623754 69.444263 -21.560954 -0.421781 -4.235401 -4.413774 0.836493 -0.239576 0.249475 13.088976 -43.011275 -2.052505 24.442254 61.410767 24.017762 -16.150933 -8.725043 4.573482 -0.701951 0.277944 -0.265224
-261.524824 60.221862 -81.070658 158.229220 -25.736653 3.318859 3.531078 18.095514 1.065739 0.367286 2.026174 0.088351 0.610380 3.355826 0.153472 2.994456 15.671561 1.050028 1.627137 16.994245 -0.137895 1.738813 -7.866157 -0.513481 1.201696 1.488180 -5.852732 -7.920566 -18.046099 -4.002706 -104.875187 -77.563959 111.853606 -4.123505 -4.799774 -25.350000 -6.141533 -1.690283 -5.077709 27.123312 -12.229186 -4.042252 95.091257 -79.003452 -98.280912 -7.231462 0.735036 -8.677489 -2.026047 -44.023422 4.504920 -24.691742 69.473430 -21.594191 -0.387952 -4.276603 -4.457680 0.852036 -0.237529 0.271777 13.092413 -43.057431 -2.035857 24.450085 61.471922 24.049737 -16.211796 -8.755785 4.570823 -0.658549 0.269954 -0.262890
-261.515115 60.218643 -81.091625 158.244822 -25.656693 3.265466 3.514537 18.020513 1.103158 0.367370 2.013644 0.089662 0.610721 3.335901 0.155541 3.006193 15.628146 1.062993 1.660693 17.018221 -0.142016 1.775323 -7.839453 -0.525507 1.250416 1.449137 -5.837333 -7.895427 -18.044893 -4.086254 -105.269058 -77.621821 112.279319 -4.089958 -4.780309 -25.345409 -6.133245 -1.741236 -5.091828 27.128060 -12.268568 -3.972698 95.541339 -78.996540 -98.835619 -7.225129 0.735941 -8.594190 -2.127231 -44.093414 4.575544 -24.746556 69.499172 -21.620255 -0.346215 -4.314629 -4.494968 0.844814 -0.227688 0.309203 13.079687 -43.155967 -2.028679 24.477114 61.504145 24.099007 -16.180275 -8.767811 4.570423 -0.650557 0.260379 -0.264540
-261.511058 60.214406 -81.110389 158.244972 -25.545741 3.240927 3.503011 17.918706 1.113379 0.367635 2.001879 0.090999 0.622746 3.326449 0.156375 3.008461 15.577636 1.078162 1.693925 17.040390 -0.145014 1.811267 -7.814646 -0.536282 1.273717 1.470158 -5.842321 -7.856060 -18.096467 -4.135773 -105.511450 -77.637686 112.558666 -4.064087 -4.753795 -25.342183 -6.120227 -1.788508 -5.103210 27.134141 -12.298941 -3.905131 95.998282 -78.997383 -99.395822 -7.227072 0.747125 -8.508885 -2.241581 -44.185356 4.632120 -24.687898 69.524458 -21.566375 -0.286218 -4.372956 -4.499270 0.822113 -0.195393 0.287426 13.111197 -43.277744 -2.056799 24.490163 61.534494 24.141675 -16.218762 -8.777345 4.568268 -0.639441 0.254524 -0.267484
-261.506325 60.213743 -81.133993 158.222608 -25.470492 3.229500 3.520333 17.849325 1.125964 0.355480 1.997257 0.090962 0.636409 3.315106 0.158006 3.010466 15.531813 1.093296 1.718095 17.069162 -0.150802 1.822429 -7.793405 -0.543386 1.314671 1.427190 -5.827992 -7.817359 -18.078593 -4.208061 -105.591302 -77.614878 112.677828 -4.047033 -4.721412 -25.327564 -6.104614 -1.831268 -5.109868 27.134790 -12.265416 -3.859911 96.747242 -79.014174 -100.249586 -7.234168 0.771553 -8.418051 -2.417512 -44.224325 4.704884 -24.450704 69.555317 -21.387440 -0.154965 -4.438121 -4.496780 0.724089 -0.148992 0.249376 13.164414 -43.369891 -2.099728 24.541283 61.582193 24.235976 -16.188725 -8.778465 4.571199 -0.612490 0.221042 -0.271413
-261.498265 60.213765 -81.154942 158.189099 -25.397087 3.195709 3.535580 17.791372 1.157711 0.362629 1.983375 0.092959 0.613764 3.282515 0.162413 3.052655 15.535828 1.096785 1.751559 17.061172 -0.141726 1.872915 -7.776351 -0.551156 1.345025 1.353968 -5.803498 -7.773921 -18.050049 -4.274303 -105.518570 -77.563843 112.646388 -4.037608 -4.683183 -25.297304 -6.092558 -1.891743 -5.099268 27.136753 -12.233735 -3.821736 97.421934 -79.030366 -101.029044 -7.250645 0.804888 -8.323135 -2.488210 -44.280302 4.782312 -24.406305 69.572652 -21.344697 -0.095454 -4.456287 -4.499260 0.686265 -0.148395 0.230913 13.173466 -43.459013 -2.079617 24.617150 61.616820 24.328801 -16.151276 -8.797380 4.571627 -0.583687 0.203640 -0.271290
-261.492443 60.216076 -81.177976 158.163880 -25.346978 3.173538 3.543954 17.753304 1.177047 0.362983 1.972705 0.094813 0.615220 3.266268 0.165151 3.073081 15.524784 1.101869 1.795119 17.044073 -0.125390 1.883768 -7.743533 -0.560850 1.364996 1.299867 -5.784426 -7.731474 -18.030831 -4.321503 -105.350024 -77.498776 112.520163 -4.033012 -4.634636 -25.260331 -6.081416 -1.942011 -5.084575 27.177427 -12.303580 -3.741765 97.417315 -79.002152 -101.150419 -7.282024 0.840356 -8.231026 -2.513446 -44.320777 4.829239 -24.420436 69.591544 -21.342262 -0.084228 -4.465952 -4.518855 0.686130 -0.161972 0.237247 13.173203 -43.523346 -2.062558 24.676852 61.655658 24.414077 -16.196026 -8.807677 4.561991 -0.533732 0.191694 -0.264915
-261.483425 60.220939 -81.202436 158.082203 -25.327808 3.159944 3.627024 17.738097 1.223680 0.342631 1.972487 0.094525 0.616278 3.250813 0.168312 3.079343 15.437717 1.139061 1.832349 17.111860 -0.147655 1.888992 -7.715864 -0.572352 1.392614 1.322836 -5.801624 -7.693141 -18.004116 -4.355024 -105.133126 -77.428754 112.346217 -4.028047 -4.572771 -25.223074 -6.050806 -1.911389 -5.112318 27.218051 -12.312329 -3.688567 97.644821 -78.984445 -101.515231 -7.325834 0.880235 -8.152510 -2.532286 -44.318414 4.893514 -24.333288 69.613526 -21.247179 -0.044882 -4.485890 -4.522160 0.643551 -0.151902 0.238082 13.192312 -43.561331 -2.009530 24.710859 61.727442 24.494976 -16.247721 -8.846115 4.537268 -0.533434 0.180930 -0.262955
-261.479776 60.221248 -81.215398 158.050462 -25.246391 3.129067 3.644819 17.667637 1.254104 0.355466 1.963111 0.096179 0.609137 3.241131 0.170556 3.083428 15.402304 1.159327 1.871393 17.122790 -0.150997 1.929085 -7.698966 -0.584230 1.413650 1.292991 -5.801827 -7.664976 -17.974991 -4.374111 -104.872490 -77.361266 112.128694 -4.021116 -4.500368 -25.179836 -6.015315 -1.924348 -5.112170 27.253349 -12.290775 -3.651747 97.946658 -78.965205 -101.958562 -7.377479 0.929587 -8.094714 -2.586170 -44.381240 4.933499 -24.180305 69.637602 -21.081358 0.085679 -4.506734 -4.487536 0.518840 -0.131068 0.176571 13.178866 -43.659513 -1.981891 24.763965 61.759702 24.563573 -16.280527 -8.834569 4.515661 -0.445598 0.154904 -0.236988
-261.475917 60.222728 -81.228092 158.018859 -25.183767 3.097316 3.658900 17.619939 1.283870 0.370443 1.950774 0.099173 0.616705 3.235906 0.171627 3.072008 15.363958 1.184983 1.911438 17.129810 -0.157309 1.971307 -7.684522 -0.597219 1.430613 1.264753 -5.806432 -7.648634 -17.945391 -4.379868 -104.572829 -77.301958 111.870848 -4.011235 -4.421094 -25.123758 -5.972755 -1.930770 -5.111072 27.261546 -12.249407 -3.643436 98.087311 -78.952021 -102.171689 -7.446257 0.944128 -8.105015 -2.600378 -44.435283 4.977383 -24.134928 69.652198 -21.010485 0.113244 -4.501995 -4.491261 0.493736 -0.140713 0.170538 13.160483 -43.737779 -1.944728 24.805001 61.789342 24.623354 -16.286116 -8.846928 4.503782 -0.407544 0.151105 -0.228900
-261.476790 60.224510 -81.240172 158.006425 -25.127636 3.084339 3.650445 17.579310 1.289476 0.343483 1.946876 0.102183 0.642883 3.216851 0.173496 3.079163 15.333447 1.208669 1.950169 17.132869 -0.167068 2.016051 -7.672548 -0.613032 1.439641 1.237348 -5.814653 -7.640086 -17.914563 -4.373459 -104.261401 -77.252995 111.600508 -3.993205 -4.339677 -25.060517 -5.930122 -1.933056 -5.109982 27.317711 -12.207393 -3.609586 98.337455 -78.902317 -102.618065 -7.481661 1.032185 -8.052709 -2.593962 -44.486303 4.978383 -24.100583 69.664854 -20.950555 0.135251 -4.497943 -4.491654 0.473101 -0.148731 0.167596 13.161814 -43.797991 -1.939249 24.817310 61.804975 24.647108 -16.339810 -8.846469 4.503904 -0.387206 0.148767 -0.223098
-261.476995 60.225872 -81.248821 157.997549 -25.072362 3.061516 3.615599 17.550868 1.292329 0.382083 1.922747 0.107421 0.627662 3.205424 0.179662 3.088185 15.306969 1.231751 1.971252 17.151116 -0.190302 2.125105 -7.718011 -0.628955 1.444626 1.224938 -5.829493 -7.628420 -17.884005 -4.376583 -104.009050 -77.191822 111.370148 -3.967241 -4.261639 -25.001135 -5.890095 -1.932443 -5.108077 27.380365 -12.149486 -3.577309 98.511662 -78.846063 -103.000752 -7.482840 1.101675 -7.961646 -2.591244 -44.536189 4.992294 -24.074305 69.670891 -20.899899 0.155427 -4.489889 -4.489681 0.450308 -0.157776 0.160977 13.127389 -43.868333 -1.921480 24.874287 61.822696 24.702548 -16.328007 -8.832879 4.510690 -0.363516 0.130966 -0.222972
-261.471708 60.227150 -81.253537 157.967600 -25.024404 3.012224 3.638259 17.515367 1.343185 0.395129 1.911432 0.110074 0.615530 3.196072 0.184597 3.102471 15.296816 1.240990 1.989769 17.149963 -0.195777 2.194510 -7.750073 -0.639511 1.431301 1.186332 -5.821250 -7.607156 -17.847152 -4.382633 -103.778719 -77.144117 111.148692 -3.926205 -4.207996 -24.953008 -5.858231 -1.941478 -5.085789 27.426148 -12.078845 -3.555955 98.613351 -78.794840 -103.276319 -7.513604 1.168407 -7.950827 -2.600993 -44.575610 5.061921 -24.056602 69.667437 -20.858748 0.174011 -4.470757 -4.483799 0.425072 -0.171159 0.150829 13.060313 -43.949251 -1.866515 24.935242 61.857240 24.802967 -16.277455 -8.832145 4.467574 -0.335362 0.111017 -0.207181
-261.470743 60.226910 -81.253909 157.951593 -24.958732 2.975573 3.642750 17.464829 1.374689 0.369188 1.912291 0.112075 0.639867 3.173379 0.187009 3.106624 15.270217 1.271287 2.026004 17.145734 -0.212907 2.233174 -7.752559 -0.651190 1.419061 1.155889 -5.829917 -7.639811 -17.813653 -4.302453 -103.547732 -77.176871 110.976474 -3.902416 -4.146716 -24.914277 -5.812186 -1.930687 -5.088516 27.470401 -11.994838 -3.538998 98.726699 -78.744353 -103.564521 -7.534753 1.239188 -7.930907 -2.607807 -44.634377 5.112444 -24.046392 69.657690 -20.829245 0.185246 -4.456970 -4.477944 0.412194 -0.174403 0.146670 13.023704 -44.034257 -1.844648 24.976399 61.866088 24.867009 -16.243181 -8.821460 4.448895 -0.351005 0.101888 -0.200116
